<svg width="798.03125px" height="122px" xmlns="http://www.w3.org/2000/svg" viewBox="-149.015625 14 798.03125 122" style="background: rgba(0, 0, 0, 0);" preserveAspectRatio="xMidYMid"><defs><filter id="editing-raise" x="-100%" y="-100%" width="300%" height="300%"><feFlood flood-color="#ccc" result="flood-surface"></feFlood><feFlood flood-color="#777" result="flood-extrude"></feFlood><feMorphology operator="erode" in="SourceAlpha" radius="1" result="erode"></feMorphology><feConvolveMatrix in="erode" result="shadow" order="11,8" divisor="1" kernelMatrix="0 0 0 1 1 1 1 1 0 0 0 0 0 1 0 0 0 0 0 1 0 0 0 0 1 0 0 0 0 0 1 0 0 0 0 1 0 0 0 0 0 1 0 0 0 0 1 0 0 0 0 0 1 0 0 0 0 0 1 0 0 0 1 0 0 0 0 0 0 1 1 0 1 1 0 0 0 0 0 0 0 0 1 0 0 0 0 0"></feConvolveMatrix><feOffset dx="0" dy="4" in="shadow" result="offset"></feOffset><feGaussianBlur in="offset" stdDeviation="0.2" result="blur"></feGaussianBlur><feComposite operator="in" in="flood-extrude" in2="blur" result="extrude"></feComposite><feMorphology operator="erode" in="SourceAlpha" radius="1" result="erode2"></feMorphology><feConvolveMatrix in="erode2" result="out" order="4,4" divisor="1" kernelMatrix="0 1 1 0 1 0 0 1 1 0 0 1 0 1 1 0 "></feConvolveMatrix><feComposite operator="in" in="flood-surface" in2="out" result="text"></feComposite><feMerge><feMergeNode in="extrude"></feMergeNode><feMergeNode in="text"></feMergeNode></feMerge></filter></defs><g filter="url(#editing-raise)"><g transform="translate(-35.73002550005913, 102.84000015258789)"><path d="M0.45-0.32L0.45-0.32L8.51-42.24L8.51-42.24Q16.06-42.88 20.93-42.88L20.93-42.88L20.93-42.88Q25.79-42.88 28.93-42.46L28.93-42.46L28.93-42.46Q32.06-42.05 34.18-40.96L34.18-40.96L34.18-40.96Q38.40-38.91 38.40-33.28L38.40-33.28L38.40-33.28Q38.40-30.02 35.58-27.26L35.58-27.26L35.58-27.26Q32.96-24.77 30.08-24.19L30.08-24.19L30.08-24.19Q33.15-23.68 35.33-21.38L35.33-21.38L35.33-21.38Q37.63-18.94 37.63-15.17L37.63-15.17L37.63-15.17Q37.63-7.87 32.19-3.62L32.19-3.62L32.19-3.62Q26.75 0.64 16.06 0.64L16.06 0.64L16.06 0.64Q8.70 0.64 0.45-0.32ZM17.86-20.61L14.66-4.03L14.66-4.03Q15.23-3.97 15.36-3.97L15.36-3.97L15.94-3.97L15.94-3.97Q21.18-3.97 23.42-7.42L23.42-7.42L23.42-7.42Q25.09-10.11 25.09-15.04L25.09-15.04L25.09-15.04Q25.09-17.66 23.39-19.07L23.39-19.07L23.39-19.07Q21.70-20.48 17.86-20.61L17.86-20.61ZM27.58-33.22L27.58-33.22L27.58-33.22Q27.58-38.53 22.46-38.53L22.46-38.53L21.89-38.53L21.89-38.53Q21.63-38.53 21.25-38.46L21.25-38.46L18.69-24.96L19.33-24.96L19.33-24.96Q27.58-25.15 27.58-33.22ZM44.64-1.92L44.64-1.92L44.64-1.92Q43.14-3.58 42.46-6.21L42.46-6.21L42.46-6.21Q41.79-8.83 41.79-13.12L41.79-13.12L41.79-13.12Q41.79-17.41 43.26-21.31L43.26-21.31L43.26-21.31Q44.74-25.22 47.42-28.03L47.42-28.03L47.42-28.03Q52.93-33.92 62.02-33.92L62.02-33.92L62.02-33.92Q65.28-33.92 67.65-32.83L67.65-32.83L78.59-33.92L73.86-8.96L73.86-8.96Q73.66-8.19 73.66-6.78L73.66-6.78L73.66-6.78Q73.66-5.38 74.53-4.48L74.53-4.48L74.53-4.48Q75.39-3.58 76.67-3.46L76.67-3.46L76.67-3.46Q76.03-1.28 73.70 0L73.70 0L73.70 0Q71.36 1.28 68.74 1.28L68.74 1.28L68.74 1.28Q66.11 1.28 64.35 0.29L64.35 0.29L64.35 0.29Q62.59-0.70 62.08-2.37L62.08-2.37L62.08-2.37Q61.06-0.77 58.88 0.26L58.88 0.26L58.88 0.26Q56.70 1.28 53.79 1.28L53.79 1.28L53.79 1.28Q50.88 1.28 48.51 0.51L48.51 0.51L48.51 0.51Q46.14-0.26 44.64-1.92ZM58.14-27.90L58.14-27.90L58.14-27.90Q57.41-26.75 56.77-24.80L56.77-24.80L56.77-24.80Q56.13-22.85 55.07-17.63L55.07-17.63L55.07-17.63Q54.02-12.42 54.02-8.70L54.02-8.70L54.02-8.70Q54.02-4.99 54.59-3.90L54.59-3.90L54.59-3.90Q55.17-2.82 56.19-2.82L56.19-2.82L56.19-2.82Q58.24-2.82 59.74-4.77L59.74-4.77L59.74-4.77Q61.25-6.72 61.82-10.18L61.82-10.18L65.22-28.93L65.22-28.93Q63.87-30.08 62.30-30.08L62.30-30.08L62.30-30.08Q60.74-30.08 59.81-29.57L59.81-29.57L59.81-29.57Q58.88-29.06 58.14-27.90ZM109.12 1.28L109.12 1.28L109.12 1.28Q101.38 1.28 101.38-4.74L101.38-4.74L101.38-4.74Q101.44-6.40 101.95-9.22L101.95-9.22L103.10-15.10L103.10-15.10Q104.83-23.42 104.83-25.28L104.83-25.28L104.83-25.28Q104.83-28.99 102.66-28.99L102.66-28.99L102.66-28.99Q99.01-28.99 97.09-19.46L97.09-19.46L93.31 0L80.45 1.28L87.10-32.70L97.60-33.92L96.58-27.65L96.58-27.65Q99.58-33.92 108.80-33.92L108.80-33.92L108.80-33.92Q113.28-33.92 115.17-32.03L115.17-32.03L115.17-32.03Q117.06-30.14 117.06-25.92L117.06-25.92L117.06-25.92Q117.06-21.95 115.01-12.67L115.01-12.67L115.01-12.67Q114.05-8.51 114.05-6.94L114.05-6.94L114.05-6.94Q114.05-5.38 114.91-4.48L114.91-4.48L114.91-4.48Q115.78-3.58 117.06-3.46L117.06-3.46L117.06-3.46Q116.42-1.28 114.21 0L114.21 0L114.21 0Q112 1.28 109.12 1.28ZM137.66 12.80L140.35-0.19L140.35-0.19Q138.24 1.28 134.88 1.28L134.88 1.28L134.88 1.28Q131.52 1.28 129.06 0.51L129.06 0.51L129.06 0.51Q126.59-0.26 125.06-1.92L125.06-1.92L125.06-1.92Q122.11-5.12 122.11-12.61L122.11-12.61L122.11-12.61Q122.11-22.08 127.74-28.03L127.74-28.03L127.74-28.03Q133.25-33.92 142.34-33.92L142.34-33.92L142.34-33.92Q145.60-33.92 147.97-32.83L147.97-32.83L159.30-33.92L150.59 11.52L137.66 12.80ZM136.58-2.69L136.58-2.69L136.58-2.69Q138.56-2.69 140.03-4.70L140.03-4.70L140.03-4.70Q141.50-6.72 142.14-10.18L142.14-10.18L145.54-28.93L145.54-28.93Q144.19-30.08 142.62-30.08L142.62-30.08L142.62-30.08Q141.06-30.08 140.13-29.57L140.13-29.57L140.13-29.57Q139.20-29.06 138.50-27.90L138.50-27.90L138.50-27.90Q136.64-24.90 135.17-16.19L135.17-16.19L135.17-16.19Q134.34-11.01 134.34-6.85L134.34-6.85L134.34-6.85Q134.34-2.69 136.58-2.69ZM182.21-2.69L182.21-2.69L182.21-2.69Q179.14 1.28 171.52 1.28L171.52 1.28L171.52 1.28Q167.55 1.28 164.67-1.12L164.67-1.12L164.67-1.12Q161.79-3.52 161.79-6.98L161.79-6.98L161.79-6.98Q161.79-8.90 161.98-9.86L161.98-9.86L166.27-32.64L179.26-33.92L174.59-9.22L174.59-9.22Q174.34-7.81 174.34-6.98L174.34-6.98L174.34-6.98Q174.34-3.26 176.58-3.26L176.58-3.26L176.58-3.26Q179.07-3.26 180.86-6.66L180.86-6.66L180.86-6.66Q181.44-7.74 181.70-9.15L181.70-9.15L186.24-32.64L198.85-33.92L194.11-8.96L194.11-8.96Q193.92-8 193.92-6.98L193.92-6.98L193.92-6.98Q193.92-5.95 194.50-4.83L194.50-4.83L194.50-4.83Q195.07-3.71 196.93-3.46L196.93-3.46L196.93-3.46Q196.54-1.92 195.20-0.90L195.20-0.90L195.20-0.90Q192.38 1.28 189.34 1.28L189.34 1.28L189.34 1.28Q186.30 1.28 184.51 0.19L184.51 0.19L184.51 0.19Q182.72-0.90 182.21-2.69ZM227.97-10.82L227.97-10.82L227.97-10.82Q229.57-9.73 229.57-7.33L229.57-7.33L229.57-7.33Q229.57-4.93 228.35-3.39L228.35-3.39L228.35-3.39Q227.14-1.86 225.15-0.83L225.15-0.83L225.15-0.83Q221.06 1.28 216.64 1.28L216.64 1.28L216.64 1.28Q212.22 1.28 209.63 0.32L209.63 0.32L209.63 0.32Q207.04-0.64 205.31-2.43L205.31-2.43L205.31-2.43Q201.92-5.82 201.92-12.03L201.92-12.03L201.92-12.03Q201.92-21.70 207.17-27.58L207.17-27.58L207.17-27.58Q212.80-33.92 222.59-33.92L222.59-33.92L222.59-33.92Q228.67-33.92 231.68-31.36L231.68-31.36L231.68-31.36Q233.92-29.44 233.92-26.30L233.92-26.30L233.92-26.30Q233.92-15.04 214.46-15.04L214.46-15.04L214.46-15.04Q214.21-13.38 214.21-11.97L214.21-11.97L214.21-11.97Q214.21-9.02 215.52-7.90L215.52-7.90L215.52-7.90Q216.83-6.78 219.26-6.78L219.26-6.78L219.26-6.78Q221.70-6.78 224.29-7.90L224.29-7.90L224.29-7.90Q226.88-9.02 227.97-10.82ZM214.91-17.79L214.91-17.79L214.91-17.79Q219.46-17.79 222.08-20.61L222.08-20.61L222.08-20.61Q224.70-23.30 224.70-27.58L224.70-27.58L224.70-27.58Q224.70-29.06 224.16-29.86L224.16-29.86L224.16-29.86Q223.62-30.66 222.53-30.66L222.53-30.66L222.53-30.66Q221.44-30.66 220.51-30.24L220.51-30.24L220.51-30.24Q219.58-29.82 218.62-28.42L218.62-28.42L218.62-28.42Q216.26-25.22 214.91-17.79ZM252.06-1.92L252.06-1.92L252.06-1.92Q250.56-3.58 249.89-6.21L249.89-6.21L249.89-6.21Q249.22-8.83 249.22-13.12L249.22-13.12L249.22-13.12Q249.22-17.41 250.69-21.31L250.69-21.31L250.69-21.31Q252.16-25.22 254.85-28.03L254.85-28.03L254.85-28.03Q260.35-33.92 269.44-33.92L269.44-33.92L269.44-33.92Q272.70-33.92 275.07-32.83L275.07-32.83L286.02-33.92L281.28-8.96L281.28-8.96Q281.09-8.19 281.09-6.78L281.09-6.78L281.09-6.78Q281.09-5.38 281.95-4.48L281.95-4.48L281.95-4.48Q282.82-3.58 284.10-3.46L284.10-3.46L284.10-3.46Q283.46-1.28 281.12 0L281.12 0L281.12 0Q278.78 1.28 276.16 1.28L276.16 1.28L276.16 1.28Q273.54 1.28 271.78 0.29L271.78 0.29L271.78 0.29Q270.02-0.70 269.50-2.37L269.50-2.37L269.50-2.37Q268.48-0.77 266.30 0.26L266.30 0.26L266.30 0.26Q264.13 1.28 261.22 1.28L261.22 1.28L261.22 1.28Q258.30 1.28 255.94 0.51L255.94 0.51L255.94 0.51Q253.57-0.26 252.06-1.92ZM265.57-27.90L265.57-27.90L265.57-27.90Q264.83-26.75 264.19-24.80L264.19-24.80L264.19-24.80Q263.55-22.85 262.50-17.63L262.50-17.63L262.50-17.63Q261.44-12.42 261.44-8.70L261.44-8.70L261.44-8.70Q261.44-4.99 262.02-3.90L262.02-3.90L262.02-3.90Q262.59-2.82 263.62-2.82L263.62-2.82L263.62-2.82Q265.66-2.82 267.17-4.77L267.17-4.77L267.17-4.77Q268.67-6.72 269.25-10.18L269.25-10.18L272.64-28.93L272.64-28.93Q271.30-30.08 269.73-30.08L269.73-30.08L269.73-30.08Q268.16-30.08 267.23-29.57L267.23-29.57L267.23-29.57Q266.30-29.06 265.57-27.90ZM308.61-22.46L308.61-22.46L308.61-22.46Q309.50-24.83 309.50-26.88L309.50-26.88L309.50-26.88Q309.50-30.66 306.43-30.66L306.43-30.66L306.43-30.66Q304.83-30.66 303.52-29.22L303.52-29.22L303.52-29.22Q302.21-27.78 302.21-25.98L302.21-25.98L302.21-25.98Q302.21-24.70 303.23-23.68L303.23-23.68L303.23-23.68Q304.70-22.27 308.48-19.97L308.48-19.97L308.48-19.97Q312.26-17.66 313.70-15.78L313.70-15.78L313.70-15.78Q315.14-13.89 315.14-11.30L315.14-11.30L315.14-11.30Q315.14-8.70 313.89-6.34L313.89-6.34L313.89-6.34Q312.64-3.97 310.40-2.30L310.40-2.30L310.40-2.30Q305.60 1.28 297.92 1.28L297.92 1.28L297.92 1.28Q293.76 1.28 290.56-0.90L290.56-0.90L290.56-0.90Q287.36-3.01 287.36-5.50L287.36-5.50L287.36-5.50Q287.36-8 289.18-9.47L289.18-9.47L289.18-9.47Q291.01-10.94 293.70-10.94L293.70-10.94L293.70-10.94Q296.38-10.94 298.05-9.92L298.05-9.92L298.05-9.92Q297.22-7.81 297.22-6.40L297.22-6.40L297.22-6.40Q297.22-2.18 300.80-2.18L300.80-2.18L300.80-2.18Q302.34-2.18 303.36-3.14L303.36-3.14L303.36-3.14Q304.38-4.10 304.38-5.76L304.38-5.76L304.38-5.76Q304.38-9.02 298.88-12.48L298.88-12.48L298.88-12.48Q294.40-15.42 293.38-16.58L293.38-16.58L293.38-16.58Q291.65-18.62 291.65-21.18L291.65-21.18L291.65-21.18Q291.65-23.74 292.86-26.18L292.86-26.18L292.86-26.18Q294.08-28.61 296.32-30.34L296.32-30.34L296.32-30.34Q300.99-33.92 309.12-33.92L309.12-33.92L309.12-33.92Q313.28-33.92 315.74-32.26L315.74-32.26L315.74-32.26Q318.21-30.59 318.21-27.78L318.21-27.78L318.21-27.78Q318.21-24.96 316.51-23.36L316.51-23.36L316.51-23.36Q314.82-21.76 311.74-21.76L311.74-21.76L311.74-21.76Q309.63-21.76 308.61-22.46ZM339.71-22.46L339.71-22.46L339.71-22.46Q340.61-24.83 340.61-26.88L340.61-26.88L340.61-26.88Q340.61-30.66 337.54-30.66L337.54-30.66L337.54-30.66Q335.94-30.66 334.62-29.22L334.62-29.22L334.62-29.22Q333.31-27.78 333.31-25.98L333.31-25.98L333.31-25.98Q333.31-24.70 334.34-23.68L334.34-23.68L334.34-23.68Q335.81-22.27 339.58-19.97L339.58-19.97L339.58-19.97Q343.36-17.66 344.80-15.78L344.80-15.78L344.80-15.78Q346.24-13.89 346.24-11.30L346.24-11.30L346.24-11.30Q346.24-8.70 344.99-6.34L344.99-6.34L344.99-6.34Q343.74-3.97 341.50-2.30L341.50-2.30L341.50-2.30Q336.70 1.28 329.02 1.28L329.02 1.28L329.02 1.28Q324.86 1.28 321.66-0.90L321.66-0.90L321.66-0.90Q318.46-3.01 318.46-5.50L318.46-5.50L318.46-5.50Q318.46-8 320.29-9.47L320.29-9.47L320.29-9.47Q322.11-10.94 324.80-10.94L324.80-10.94L324.80-10.94Q327.49-10.94 329.15-9.92L329.15-9.92L329.15-9.92Q328.32-7.81 328.32-6.40L328.32-6.40L328.32-6.40Q328.32-2.18 331.90-2.18L331.90-2.18L331.90-2.18Q333.44-2.18 334.46-3.14L334.46-3.14L334.46-3.14Q335.49-4.10 335.49-5.76L335.49-5.76L335.49-5.76Q335.49-9.02 329.98-12.48L329.98-12.48L329.98-12.48Q325.50-15.42 324.48-16.58L324.48-16.58L324.48-16.58Q322.75-18.62 322.75-21.18L322.75-21.18L322.75-21.18Q322.75-23.74 323.97-26.18L323.97-26.18L323.97-26.18Q325.18-28.61 327.42-30.34L327.42-30.34L327.42-30.34Q332.10-33.92 340.22-33.92L340.22-33.92L340.22-33.92Q344.38-33.92 346.85-32.26L346.85-32.26L346.85-32.26Q349.31-30.59 349.31-27.78L349.31-27.78L349.31-27.78Q349.31-24.96 347.62-23.36L347.62-23.36L347.62-23.36Q345.92-21.76 342.85-21.76L342.85-21.76L342.85-21.76Q340.74-21.76 339.71-22.46ZM372.22-2.69L372.22-2.69L372.22-2.69Q369.15 1.28 361.54 1.28L361.54 1.28L361.54 1.28Q357.57 1.28 354.69-1.12L354.69-1.12L354.69-1.12Q351.81-3.52 351.81-6.98L351.81-6.98L351.81-6.98Q351.81-8.90 352-9.86L352-9.86L356.29-32.64L369.28-33.92L364.61-9.22L364.61-9.22Q364.35-7.81 364.35-6.98L364.35-6.98L364.35-6.98Q364.35-3.26 366.59-3.26L366.59-3.26L366.59-3.26Q369.09-3.26 370.88-6.66L370.88-6.66L370.88-6.66Q371.46-7.74 371.71-9.15L371.71-9.15L376.26-32.64L388.86-33.92L384.13-8.96L384.13-8.96Q383.94-8 383.94-6.98L383.94-6.98L383.94-6.98Q383.94-5.95 384.51-4.83L384.51-4.83L384.51-4.83Q385.09-3.71 386.94-3.46L386.94-3.46L386.94-3.46Q386.56-1.92 385.22-0.90L385.22-0.90L385.22-0.90Q382.40 1.28 379.36 1.28L379.36 1.28L379.36 1.28Q376.32 1.28 374.53 0.19L374.53 0.19L374.53 0.19Q372.74-0.90 372.22-2.69ZM412.35-17.98L412.35-17.98L412.35-17.98Q414.66-22.08 414.66-26.24L414.66-26.24L414.66-26.24Q414.66-28.99 412.67-28.99L412.67-28.99L412.67-28.99Q411.14-28.99 409.54-26.37L409.54-26.37L409.54-26.37Q407.87-23.74 407.36-20.35L407.36-20.35L404.03 0L390.78 1.28L397.31-32.64L407.87-33.92L406.72-27.46L406.72-27.46Q409.86-33.92 416.90-33.92L416.90-33.92L416.90-33.92Q420.61-33.92 422.62-32L422.62-32L422.62-32Q424.64-30.08 424.64-26.14L424.64-26.14L424.64-26.14Q424.64-22.21 422.05-19.71L422.05-19.71L422.05-19.71Q419.46-17.22 415.04-17.22L415.04-17.22L415.04-17.22Q413.12-17.22 412.35-17.98ZM428.45-1.92L428.45-1.92L428.45-1.92Q426.94-3.58 426.27-6.21L426.27-6.21L426.27-6.21Q425.60-8.83 425.60-13.12L425.60-13.12L425.60-13.12Q425.60-17.41 427.07-21.31L427.07-21.31L427.07-21.31Q428.54-25.22 431.23-28.03L431.23-28.03L431.23-28.03Q436.74-33.92 445.82-33.92L445.82-33.92L445.82-33.92Q449.09-33.92 451.46-32.83L451.46-32.83L462.40-33.92L457.66-8.96L457.66-8.96Q457.47-8.19 457.47-6.78L457.47-6.78L457.47-6.78Q457.47-5.38 458.34-4.48L458.34-4.48L458.34-4.48Q459.20-3.58 460.48-3.46L460.48-3.46L460.48-3.46Q459.84-1.28 457.50 0L457.50 0L457.50 0Q455.17 1.28 452.54 1.28L452.54 1.28L452.54 1.28Q449.92 1.28 448.16 0.29L448.16 0.29L448.16 0.29Q446.40-0.70 445.89-2.37L445.89-2.37L445.89-2.37Q444.86-0.77 442.69 0.26L442.69 0.26L442.69 0.26Q440.51 1.28 437.60 1.28L437.60 1.28L437.60 1.28Q434.69 1.28 432.32 0.51L432.32 0.51L432.32 0.51Q429.95-0.26 428.45-1.92ZM441.95-27.90L441.95-27.90L441.95-27.90Q441.22-26.75 440.58-24.80L440.58-24.80L440.58-24.80Q439.94-22.85 438.88-17.63L438.88-17.63L438.88-17.63Q437.82-12.42 437.82-8.70L437.82-8.70L437.82-8.70Q437.82-4.99 438.40-3.90L438.40-3.90L438.40-3.90Q438.98-2.82 440.00-2.82L440.00-2.82L440.00-2.82Q442.05-2.82 443.55-4.77L443.55-4.77L443.55-4.77Q445.06-6.72 445.63-10.18L445.63-10.18L449.02-28.93L449.02-28.93Q447.68-30.08 446.11-30.08L446.11-30.08L446.11-30.08Q444.54-30.08 443.62-29.57L443.62-29.57L443.62-29.57Q442.69-29.06 441.95-27.90ZM492.93 1.28L492.93 1.28L492.93 1.28Q485.18 1.28 485.18-4.74L485.18-4.74L485.18-4.74Q485.25-6.40 485.76-9.22L485.76-9.22L486.91-15.10L486.91-15.10Q488.64-23.42 488.64-25.28L488.64-25.28L488.64-25.28Q488.64-28.99 486.46-28.99L486.46-28.99L486.46-28.99Q482.82-28.99 480.90-19.46L480.90-19.46L477.12 0L464.26 1.28L470.91-32.70L481.41-33.92L480.38-27.65L480.38-27.65Q483.39-33.92 492.61-33.92L492.61-33.92L492.61-33.92Q497.09-33.92 498.98-32.03L498.98-32.03L498.98-32.03Q500.86-30.14 500.86-25.92L500.86-25.92L500.86-25.92Q500.86-21.95 498.82-12.67L498.82-12.67L498.82-12.67Q497.86-8.51 497.86-6.94L497.86-6.94L497.86-6.94Q497.86-5.38 498.72-4.48L498.72-4.48L498.72-4.48Q499.58-3.58 500.86-3.46L500.86-3.46L500.86-3.46Q500.22-1.28 498.02 0L498.02 0L498.02 0Q495.81 1.28 492.93 1.28ZM537.41-26.62L537.41-26.62L537.41-26.62Q537.41-23.94 535.17-22.27L535.17-22.27L535.17-22.27Q532.93-20.61 529.28-20.61L529.28-20.61L529.28-20.61Q527.74-20.61 526.85-21.06L526.85-21.06L526.85-21.06Q527.55-22.72 527.78-24.80L527.78-24.80L527.78-24.80Q528-26.88 528-27.46L528-27.46L528-27.46Q528-30.14 526.14-30.14L526.14-30.14L526.14-30.14Q524.86-30.14 523.42-28.54L523.42-28.54L523.42-28.54Q521.98-26.94 520.77-24.45L520.77-24.45L520.77-24.45Q518.08-18.69 518.08-12.86L518.08-12.86L518.08-12.86Q518.08-9.66 519.30-8.22L519.30-8.22L519.30-8.22Q520.51-6.78 523.20-6.78L523.20-6.78L523.20-6.78Q526.91-6.78 529.86-9.86L529.86-9.86L529.86-9.86Q530.69-10.82 531.14-11.90L531.14-11.90L531.14-11.90Q533.57-10.62 533.57-7.10L533.57-7.10L533.57-7.10Q533.57-3.52 529.60-1.15L529.60-1.15L529.60-1.15Q525.50 1.28 518.98 1.28L518.98 1.28L518.98 1.28Q505.98 1.28 505.98-12.48L505.98-12.48L505.98-12.48Q505.98-22.53 511.68-28.29L511.68-28.29L511.68-28.29Q517.18-33.92 527.30-33.92L527.30-33.92L527.30-33.92Q537.41-33.92 537.41-26.62ZM565.06-10.82L565.06-10.82L565.06-10.82Q566.66-9.73 566.66-7.33L566.66-7.33L566.66-7.33Q566.66-4.93 565.44-3.39L565.44-3.39L565.44-3.39Q564.22-1.86 562.24-0.83L562.24-0.83L562.24-0.83Q558.14 1.28 553.73 1.28L553.73 1.28L553.73 1.28Q549.31 1.28 546.72 0.32L546.72 0.32L546.72 0.32Q544.13-0.64 542.40-2.43L542.40-2.43L542.40-2.43Q539.01-5.82 539.01-12.03L539.01-12.03L539.01-12.03Q539.01-21.70 544.26-27.58L544.26-27.58L544.26-27.58Q549.89-33.92 559.68-33.92L559.68-33.92L559.68-33.92Q565.76-33.92 568.77-31.36L568.77-31.36L568.77-31.36Q571.01-29.44 571.01-26.30L571.01-26.30L571.01-26.30Q571.01-15.04 551.55-15.04L551.55-15.04L551.55-15.04Q551.30-13.38 551.30-11.97L551.30-11.97L551.30-11.97Q551.30-9.02 552.61-7.90L552.61-7.90L552.61-7.90Q553.92-6.78 556.35-6.78L556.35-6.78L556.35-6.78Q558.78-6.78 561.38-7.90L561.38-7.90L561.38-7.90Q563.97-9.02 565.06-10.82ZM552-17.79L552-17.79L552-17.79Q556.54-17.79 559.17-20.61L559.17-20.61L559.17-20.61Q561.79-23.30 561.79-27.58L561.79-27.58L561.79-27.58Q561.79-29.06 561.25-29.86L561.25-29.86L561.25-29.86Q560.70-30.66 559.62-30.66L559.62-30.66L559.62-30.66Q558.53-30.66 557.60-30.24L557.60-30.24L557.60-30.24Q556.67-29.82 555.71-28.42L555.71-28.42L555.71-28.42Q553.34-25.22 552-17.79Z"></path></g></g><style>text {
  font-size: 64px;
  font-family: Arial Black;
  dominant-baseline: central;
  text-anchor: middle;
}</style></svg>